<?xml version="1.0" standalone="no"?><!DOCTYPE svg PUBLIC "-//W3C//DTD SVG 1.1//EN" "http://www.w3.org/Graphics/SVG/1.1/DTD/svg11.dtd"><svg t="1490606846291" class="icon" style="" viewBox="0 0 1024 1024" version="1.1" xmlns="http://www.w3.org/2000/svg" p-id="1886" xmlns:xlink="http://www.w3.org/1999/xlink" width="16" height="16"><defs><style type="text/css"></style></defs><path d="M512.697383 63.444984c-247.538793 0-448.208115 200.649879-448.208115 448.208115 0 247.520373 200.669322 448.208115 448.208115 448.208115s448.208115-200.687742 448.208115-448.208115C960.905498 264.094864 760.236176 63.444984 512.697383 63.444984zM510.988462 735.138056c-25.550932 0-46.25958-21.301142-46.25958-47.563272s20.708648-47.563272 46.25958-47.563272c25.561166 0 46.269813 21.301142 46.269813 47.563272S536.548604 735.138056 510.988462 735.138056zM640.211569 436.222129c-6.383384 12.291954-13.970176 22.86987-22.751167 31.769564-8.78099 8.936533-24.557302 23.927969-47.299259 45.046962-6.291287 5.945409-11.334139 11.161201-15.119349 15.684214-3.792373 4.487198-6.619768 8.608052-8.462742 12.365632-1.868557 3.719718-3.291976 7.477298-4.303003 11.197016-1.013073 3.756557-2.543939 10.32209-4.579295 19.733437-3.518127 19.950378-14.524808 29.910217-33.027208 29.910217-9.611915 0-17.708314-3.247974-24.26566-9.775644-6.573719-6.529717-9.848299-16.194844-9.848299-29.071106 0-16.086373 2.39863-30.055526 7.204076-41.836851 4.814656-11.818163 11.18883-22.177092 19.150152-31.076786 7.960299-8.899694 18.684548-19.514449 32.17991-31.806403 11.835559-10.724249 20.398586-18.821671 25.660426-24.293289 5.287423-5.470595 9.720386-11.562337 13.323447-18.273179 3.610224-6.711865 5.415336-14.007015 5.415336-21.848611 0-15.355733-5.508457-28.305673-16.503882-38.845727-11.016915-10.541077-25.205055-15.830547-42.594097-15.830547-20.354584 0-35.335786 5.325285-44.947701 15.975856-9.620102 10.650571-17.754363 26.297946-24.420179 47.052642-6.291287 21.666462-18.219967 32.499182-35.791158 32.499182-10.349719 0-19.10308-3.793396-26.217105-11.380188-7.121188-7.586792-10.6782-15.793708-10.6782-24.583908 0-18.237363 5.635347-36.694737 16.915251-55.405891 11.279904-18.675338 27.757181-34.17638 49.396014-46.432519 21.630646-12.292977 46.888913-18.420535 75.742055-18.420535 26.825972 0 50.489928 5.143137 71.025637 15.392572 20.534685 10.249435 36.392862 24.219611 47.580668 41.836851 11.189853 17.654079 16.788361 36.839023 16.788361 57.557904C649.785621 409.668357 646.593929 423.967014 640.211569 436.222129z" p-id="1887" class="" fill="#999999"></path></svg>